<svg width="56" height="27" viewBox="0 0 56 27" fill="none" xmlns="http://www.w3.org/2000/svg">
<g>
<path d="M41.94 0H13.22C5.86 0 0 5.86 0 13.22C0 20.58 5.86 26.44 13.22 26.44H41.93C49.3 26.44 55.15 20.58 55.15 13.22C55.15 5.86 49.12 0 41.94 0ZM26.07 24.18H13.22C7.17 24.18 2.26 19.27 2.26 13.22C2.26 7.17 7.18 2.27 13.22 2.27H31.92L26.06 24.18H26.07ZM45.91 18.89C45.53 19.27 44.78 19.27 44.4 18.89L40.24 14.73L36.08 18.89C35.7 19.27 34.95 19.27 34.57 18.89C34.19 18.51 34.19 17.76 34.57 17.38L38.54 13.22L34.38 9.06C34 8.68 34 7.93 34.38 7.55C34.76 7.17 35.51 7.17 35.89 7.55L40.05 11.71L44.21 7.55C44.59 7.17 45.34 7.17 45.72 7.55C46.1 7.93 46.1 8.68 45.72 9.06L41.75 13.22L45.91 17.38C46.29 17.76 46.29 18.51 45.91 18.89Z" fill="currentColor"/>
<path d="M23.24 7.75C23.62 8.13 23.81 8.88 23.43 9.26L15.5 18.52C15.31 18.71 15.12 18.9 14.93 18.9C14.55 19.09 13.99 19.09 13.61 18.71L9.45 14.55C9.07 14.17 9.07 13.42 9.45 13.04C9.83 12.66 10.58 12.66 10.96 13.04L14.36 16.25L21.54 7.75C21.92 7.37 22.67 7.37 23.24 7.75Z" fill="currentColor"/>
</g>
</svg>
